<svg xmlns="http://www.w3.org/2000/svg" viewBox="0 0 232.5 232.5"><defs><style>.cls-1{fill:#3ad29f;}.cls-2{fill:#257f5c;}.cls-3{fill:none;stroke:#efa83c;stroke-miterlimit:10;stroke-width:4px;}</style></defs><title>Asset 3</title><g id="Layer_2" data-name="Layer 2"><g id="f30b8817-e1bf-44da-9e46-2bc3b6e9971f"><path class="cls-1" d="M114.78,104.65c20.3,27.55,17.28,64.24,17.28,64.24s-35.95-8-56.25-35.52S58.53,69.13,58.53,69.13,94.47,77.1,114.78,104.65Z"/><path class="cls-1" d="M158.43,131.45c-19,28.46-54.55,38.1-54.55,38.1s-4.72-36.52,14.28-65,54.55-38.1,54.55-38.1S177.43,103,158.43,131.45Z"/><path class="cls-1" d="M145.2,107.8c-5.36,33.8-33.62,57.41-33.62,57.41S92,134,97.39,100.22,131,42.81,131,42.81,150.57,74,145.2,107.8Z"/><path class="cls-1" d="M73.69,113.89c4.1,34,31.46,58.62,31.46,58.62s20.71-30.44,16.61-64.42S90.3,49.47,90.3,49.47,69.59,79.91,73.69,113.89Z"/><path class="cls-2" d="M154.11,111.64c-7.7,23.81-30.78,37.68-30.78,37.68s-10.6-24.75-2.91-48.57S151.2,63.08,151.2,63.08,161.81,87.82,154.11,111.64Z"/><path class="cls-2" d="M72.89,111.29c7.2,24,30,38.31,30,38.31s11.12-24.53,3.92-48.5-30-38.31-30-38.31S65.69,87.32,72.89,111.29Z"/><path class="cls-2" d="M133,88.67c.74,25-16.35,45.82-16.35,45.82s-18.3-19.75-19-44.77S113.92,43.9,113.92,43.9,132.22,63.65,133,88.67Z"/><path class="cls-1" d="M148.7,132.28c-5.36,33.81-33.62,57.41-33.62,57.41s-19.56-31.19-14.19-65,33.62-57.41,33.62-57.41S154.07,98.48,148.7,132.28Z"/><path class="cls-1" d="M85.07,129.14c2.34,34.14,28.38,60.18,28.38,60.18s22.26-29.33,19.92-63.48S105,65.67,105,65.67,82.74,95,85.07,129.14Z"/><path class="cls-2" d="M107.67,128.54c14.79,27.3,7.48,59.89,7.48,59.89s-31.3-11.67-46.09-39-7.47-59.89-7.47-59.89S92.88,101.24,107.67,128.54Z"/><path class="cls-2" d="M123.93,128.65c-16.56,27.2-10.75,60.95-10.75,60.95s32.65-10.33,49.21-37.52,10.75-61,10.75-61S140.49,101.46,123.93,128.65Z"/><circle class="cls-3" cx="116.25" cy="116.25" r="114.25"/></g></g></svg>